<svg width="11" height="9" viewBox="0 0 11 9" fill="none" xmlns="http://www.w3.org/2000/svg">
<path d="M10.169 2.56901C10.0834 2.74028 9.99774 2.82592 9.82647 2.91155C8.3707 3.68226 6.91492 4.45296 5.37351 5.3093C5.20225 5.39493 5.03098 5.39493 4.77408 5.3093C3.3183 4.53859 1.77689 3.68226 0.321119 2.91155C0.0642172 2.74028 -0.0214166 2.48338 0.0642172 2.31211C0.149851 2.22648 0.235485 2.14085 0.321119 2.05521C1.69126 1.45578 2.97577 0.856337 4.34591 0.256901C4.51717 0.171267 4.68844 0.0856338 4.85971 0C5.03098 0 5.20225 -1.30794e-06 5.37351 0.0856325C6.91492 0.770703 8.3707 1.45577 9.9121 2.14085C10.0834 2.22648 10.169 2.31211 10.169 2.48338V2.56901Z" fill="#AB84FF"/>
<path d="M10.169 4.36733C10.0834 4.5386 9.99775 4.62424 9.82648 4.70987C8.3707 5.48057 6.8293 6.33691 5.37352 7.10762C5.20225 7.19325 5.03099 7.19325 4.77408 7.10762C3.31831 6.33691 1.7769 5.48057 0.321127 4.70987C0.235493 4.62424 0.149859 4.62424 0.0642254 4.5386C-0.0214084 4.36733 -0.0214084 4.19607 0.0642254 4.0248C0.149859 3.85353 0.406761 3.85353 0.578028 3.85353C0.663662 3.85353 0.663662 3.85353 0.663662 3.93916C2.11944 4.70987 3.48958 5.48058 4.94535 6.16565C5.03099 6.16565 5.11662 6.25128 5.20225 6.16565C6.65803 5.39494 8.02817 4.62424 9.48394 3.85353C9.65521 3.7679 9.82648 3.7679 9.99775 3.85353C10.0834 3.93917 10.0834 4.0248 10.169 4.11043C10.169 4.2817 10.169 4.36733 10.169 4.36733Z" fill="#AB84FF"/>
<path d="M10.169 6.08C10.0834 6.25126 9.99774 6.3369 9.82647 6.42253C8.3707 7.19324 6.82929 7.96394 5.37351 8.82028C5.20225 8.90591 4.94534 8.90591 4.77408 8.82028C3.3183 8.04957 1.77689 7.19324 0.321119 6.42253C0.0642172 6.3369 -0.0214166 6.08 0.0642172 5.90873C0.149851 5.65183 0.406752 5.56619 0.663654 5.65183C0.749288 5.65183 0.749288 5.73746 0.834921 5.73746C2.20506 6.50817 3.66084 7.27887 5.03098 7.96394C5.11661 7.96394 5.11661 7.96394 5.20225 7.96394C6.65802 7.19324 8.02816 6.42253 9.48394 5.65183C9.6552 5.56619 9.91211 5.56619 9.99774 5.65183C10.0834 5.73746 10.0834 5.8231 10.169 5.90873C10.169 5.99436 10.169 6.08 10.169 6.08Z" fill="#AB84FF"/>
</svg>
