<svg width="25" height="19" viewBox="0 0 25 19" fill="none" xmlns="http://www.w3.org/2000/svg">
<path d="M12.5003 18.8293C9.23509 18.8293 5.96985 18.8293 2.54911 18.8293C0.994236 18.8293 0.216797 18.0518 0.216797 16.497C0.216797 12.7652 0.216797 9.03354 0.216797 5.30183C0.216797 3.90244 0.994235 3.125 2.39363 3.125C3.48204 3.125 4.57046 3.125 5.65887 3.125C5.96985 3.125 6.43631 2.96951 6.74728 2.65854C7.36924 2.03658 7.99119 1.41463 8.61314 0.792683C9.0796 0.326219 9.54607 0.0152435 10.3235 0.0152435C11.8784 0.0152435 13.4333 0.0152435 14.9881 0.0152435C15.6101 0.0152435 16.232 0.170731 16.6985 0.637194C17.3205 1.25915 17.9424 2.03658 18.5644 2.50305C18.8753 2.65854 19.1863 2.81402 19.4973 2.81402C20.5857 2.81402 21.6741 2.81402 22.7625 2.81402C24.0064 2.81402 24.7839 3.59146 24.7839 4.67988C24.7839 8.56707 24.7839 12.6098 24.7839 16.497C24.7839 17.7409 23.8509 18.5183 22.607 18.5183C19.1863 18.8293 15.7656 18.8293 12.5003 18.8293ZM17.9424 10.4329C17.9424 7.47866 15.6101 4.99085 12.5003 4.99085C9.54607 4.99085 7.05826 7.47866 7.05826 10.4329C7.05826 13.3872 9.54607 15.875 12.5003 15.875C15.4546 15.875 17.9424 13.5427 17.9424 10.4329ZM22.4516 6.23476C22.918 6.23476 23.0735 5.92378 23.229 5.45732C23.229 4.99085 22.918 4.67988 22.4516 4.67988C21.9851 4.67988 21.6741 4.99085 21.6741 5.45732C21.5186 5.76829 21.9851 6.23476 22.4516 6.23476Z" fill="white"/>
<path d="M8.4573 10.4329C8.4573 8.25608 10.3232 6.39023 12.5 6.39023C14.8323 6.39023 16.5427 8.25608 16.5427 10.5884C16.5427 12.7652 14.6768 14.6311 12.5 14.6311C10.1677 14.6311 8.30182 12.7652 8.4573 10.4329Z" fill="white"/>
</svg>
