<svg width="14" height="14" viewBox="0 0 14 14" fill="none" xmlns="http://www.w3.org/2000/svg">
<path d="M8.79646 6.93805L13.6283 2.10619C14.1239 1.61062 14.1239 0.867257 13.6283 0.371681C13.1327 -0.123894 12.3894 -0.123894 11.8938 0.371681L6.93805 5.20354L2.10619 0.371681C1.61062 -0.123894 0.867257 -0.123894 0.371681 0.371681C-0.123894 0.867257 -0.123894 1.61062 0.371681 2.10619L5.20354 6.93805L0.371681 11.8938C-0.123894 12.3894 -0.123894 13.1327 0.371681 13.6283C0.619469 13.8761 0.99115 14 1.23894 14C1.48673 14 1.85841 13.8761 2.10619 13.6283L6.93805 8.79646L11.8938 13.6283C12.1416 13.8761 12.5133 14 12.7611 14C13.0088 14 13.3805 13.8761 13.6283 13.6283C14.1239 13.1327 14.1239 12.3894 13.6283 11.8938L8.79646 6.93805Z" fill="#B4B4B4"/>
</svg>
