<svg width="16" height="16" viewBox="0 0 16 16" fill="none" xmlns="http://www.w3.org/2000/svg">
<path d="M14.3689 0.234146C13.3592 -0.156098 12.4272 0 11.7282 0.780488C9.24272 3.27805 6.83495 5.69756 4.34951 8.19512C4.03883 8.50732 3.80582 8.89756 3.72816 9.20976C3.57282 9.99024 3.41748 10.8488 3.33981 11.7073V11.8634C3.33981 12.0976 3.33981 12.3317 3.49515 12.4098C3.57282 12.4878 3.72815 12.5659 3.96116 12.5659C4.03883 12.5659 4.03883 12.5659 4.1165 12.5659L4.73786 12.4878C5.04854 12.4878 5.43689 12.4098 5.74757 12.3317H5.98058C6.52427 12.2537 7.2233 12.1756 7.68932 11.6293L15.1456 4.13659C15.534 3.74634 15.8447 3.12195 15.8447 2.57561C15.8447 1.48293 15.301 0.546341 14.3689 0.234146ZM4.81553 11.161L5.04854 9.83415L6.05825 10.9268L4.81553 11.161ZM13.1262 4.21463L7.37864 9.99024L5.98058 8.58537L11.7282 2.80976L13.1262 4.21463ZM14.2136 3.2L12.7379 1.71707C13.0485 1.48293 13.3592 1.32683 13.7476 1.48293C14.1359 1.56098 14.4466 1.87317 14.5243 2.34146C14.6019 2.57561 14.4466 2.8878 14.2136 3.2Z" fill="white"/>
<path d="M14.4466 9.99024C14.4466 10.6146 14.4466 11.161 14.4466 11.7854C14.4466 13.3463 13.2039 14.5171 11.7282 14.5171C9.24272 14.5171 6.75728 14.5171 4.27184 14.5171C2.79612 14.5171 1.5534 13.3463 1.5534 11.8634C1.5534 9.4439 1.5534 6.94634 1.5534 4.21463C1.5534 2.8878 2.48544 1.79512 3.80582 1.63902C4.42718 1.56098 4.97087 1.56098 5.59223 1.56098C5.82524 1.56098 6.13592 1.56098 6.36893 1.56098C6.52427 1.56098 6.60194 1.56098 6.75728 1.56098H7.30097V0H6.05825C5.51456 0 4.8932 0 4.34951 0C1.86408 0 0 1.87317 0 4.37073C0 6.79024 0 9.2878 0 11.7073C0 14.2049 1.86408 16 4.34951 16C5.59223 16 6.75728 16 8 16C9.24272 16 10.4078 16 11.6505 16C13.7476 16 15.4563 14.5951 15.8447 12.6439C16 11.8634 16 11.0049 16 10.1463C16 9.7561 16 9.4439 16 9.05366V8.74146H14.3689L14.4466 9.99024Z" fill="white"/>
</svg>
