<svg width="20" height="20" viewBox="0 0 20 20" fill="none" xmlns="http://www.w3.org/2000/svg">
<path d="M18.5778 20C15.1733 20 11.76 20 8.35555 20C7.40444 19.68 6.94222 19.0133 6.89778 18.0178C6.87111 17.4933 6.76444 16.9778 6.69333 16.4444C5.09333 16.4444 3.53778 16.4444 1.99111 16.4444C1.80444 16.4444 1.60889 16.4356 1.42222 16.4C0.648889 16.24 0.248889 15.7067 0 15.0222C0 10.4889 0 5.95556 0 1.42222C0.231111 0.702222 0.702222 0.231111 1.42222 0C3.64444 0 5.86667 0 8.08889 0C9.09333 0.284444 9.52889 0.986667 9.6 1.99111C9.63556 2.50667 9.72444 3.01333 9.78667 3.55556C9.97333 3.55556 10.1333 3.55556 10.2933 3.55556C12.8622 3.55556 15.44 3.55556 18.0089 3.55556C18.1956 3.55556 18.3911 3.56444 18.5778 3.6C19.3422 3.75111 19.7422 4.28444 19.9911 4.96889C19.9911 9.50222 19.9911 14.0356 19.9911 18.5689C19.7689 19.2978 19.2978 19.7689 18.5778 20ZM8.92444 18.8444C9.16444 18.8444 9.28889 18.8444 9.42222 18.8444C12.2667 18.8444 15.1022 18.8444 17.9467 18.8444C18.6578 18.8444 18.8356 18.6578 18.8356 17.9556C18.8356 13.84 18.8356 9.72445 18.8356 5.60889C18.8356 4.89778 18.6489 4.72 17.9467 4.72C15.4311 4.72 12.9156 4.72 10.4 4.72C10.2578 4.72 10.1156 4.72 9.93778 4.72C9.98222 5.16444 10.0178 5.54667 10.0711 5.92C10.4711 9.12 10.88 12.3111 11.2889 15.5111C11.3333 15.8844 11.2444 16.1867 10.9778 16.48C10.3022 17.2178 9.66222 17.9911 8.92444 18.8444ZM10.0533 15.2889C10.0356 15.0667 10.0356 14.9067 10.0089 14.7467C9.75111 12.6756 9.49333 10.6133 9.23555 8.54222C8.96 6.32889 8.69333 4.10667 8.40889 1.89333C8.33778 1.32444 8.13333 1.16444 7.56444 1.16444C5.72444 1.16444 3.89333 1.16444 2.05333 1.16444C1.34222 1.16444 1.15556 1.35111 1.15556 2.05333C1.15556 6.16889 1.15556 10.2844 1.15556 14.4C1.15556 15.1111 1.34222 15.2889 2.04444 15.2889C4.56 15.2889 7.07555 15.2889 9.59111 15.2889C9.73333 15.2889 9.86667 15.2889 10.0533 15.2889ZM8.05333 17.9289C8.08889 17.9378 8.11555 17.9467 8.15111 17.9556C8.56889 17.4756 8.97778 16.9956 9.43111 16.4711C8.87111 16.4711 8.4 16.4711 7.88444 16.4711C7.93778 16.9778 8 17.4489 8.05333 17.9289Z" fill="#A6A4A4"/>
<path d="M14.6933 13.4222C14.2489 13.7867 13.8133 14.1422 13.3778 14.4889C13.1378 14.6844 12.8711 14.7467 12.6044 14.56C12.2756 14.3378 12.2756 13.9111 12.6133 13.6178C13.0222 13.2622 13.4578 12.9244 13.7867 12.6489C13.3511 11.7867 12.96 10.9867 12.5422 10.1867C12.4889 10.0889 12.3733 10.0089 12.2667 9.97333C11.9111 9.85778 11.7333 9.65333 11.7778 9.34222C11.8222 8.98667 12.0533 8.83556 12.3911 8.83556C12.9511 8.82667 13.5111 8.83556 14.08 8.83556C14.1689 8.34667 13.9556 7.72444 14.6933 7.66222C15.0844 7.62667 15.2178 7.90222 15.2978 8.83556C15.6978 8.83556 16.1067 8.83556 16.5156 8.83556C16.72 8.83556 16.9333 8.82667 17.1378 8.86222C17.4222 8.90667 17.5822 9.09333 17.6 9.37778C17.6178 9.68 17.4667 9.87556 17.1733 9.97333C17.0489 10.0178 16.8889 10.08 16.8356 10.1778C16.4267 10.9689 16.0356 11.7778 15.6 12.6578C15.9378 12.9244 16.3556 13.2622 16.7733 13.6089C17.0489 13.84 17.0933 14.1867 16.9067 14.4444C16.7022 14.72 16.3733 14.7467 16.0444 14.5156C15.9378 14.4356 15.8311 14.3556 15.7244 14.2756C15.3867 13.9911 15.04 13.7156 14.6933 13.4222ZM15.7067 10.0089C14.9867 10.0089 14.3911 10.0089 13.6711 10.0089C14.0178 10.6222 14.3289 11.1556 14.6311 11.6889C14.6756 11.68 14.7289 11.68 14.7733 11.6711C15.0667 11.1467 15.3689 10.6133 15.7067 10.0089Z" fill="#A6A4A4"/>
<path d="M6.11556 8.82667C5.54667 8.82667 5.04 8.82667 4.49778 8.82667C4.39111 9.35111 4.28444 9.86667 4.17778 10.3822C4.15111 10.4978 4.13333 10.6133 4.09778 10.7289C3.98222 11.0578 3.73333 11.2089 3.42222 11.1378C3.09333 11.0578 2.95111 10.8267 2.99556 10.5156C3.08444 9.94667 3.2 9.37778 3.30667 8.81778C3.56444 7.52889 3.82222 6.24 4.08 4.95111C4.21333 4.26667 4.32889 4.16889 5.01333 4.16889C5.28 4.16889 5.54667 4.17778 5.81333 4.16889C6.18667 4.15111 6.40889 4.34667 6.48 4.69333C6.87111 6.60444 7.25333 8.51556 7.62667 10.4267C7.69778 10.8089 7.50222 11.1022 7.16444 11.1556C6.81778 11.2089 6.56889 11.0222 6.48 10.6222C6.36444 10.0267 6.24 9.43111 6.11556 8.82667ZM4.73778 7.63556C5.14667 7.63556 5.49333 7.63556 5.89333 7.63556C5.72444 6.83556 5.56444 6.07111 5.40444 5.29778C5.34222 5.29778 5.28 5.29778 5.20889 5.29778C5.05778 6.06222 4.89778 6.82667 4.73778 7.63556Z" fill="#A6A4A4"/>
</svg>
