<svg width="51" height="47" viewBox="0 0 51 47" fill="none" xmlns="http://www.w3.org/2000/svg">
<g opacity="0.54">
<rect x="51" y="47" width="51" height="47" rx="10" transform="rotate(180 51 47)" fill="#F0E9FF"/>
<path d="M33 24C33.5523 24 34 23.5523 34 23C34 22.4477 33.5523 22 33 22L33 24ZM17.7929 22.2929C17.4024 22.6834 17.4024 23.3166 17.7929 23.7071L24.1569 30.0711C24.5474 30.4616 25.1805 30.4616 25.5711 30.0711C25.9616 29.6805 25.9616 29.0474 25.5711 28.6569L19.9142 23L25.5711 17.3431C25.9616 16.9526 25.9616 16.3195 25.5711 15.9289C25.1805 15.5384 24.5474 15.5384 24.1569 15.9289L17.7929 22.2929ZM33 22L18.5 22L18.5 24L33 24L33 22Z" fill="#5E3CBE"/>
</g>
</svg>
