<svg width="33" height="36" viewBox="0 0 33 36" fill="none" xmlns="http://www.w3.org/2000/svg">
<path d="M13.0642 1.73123C10.3691 1.85784 8.16771 3.08172 6.62469 5.52949C6.56297 5.635 6.50125 5.7405 6.43953 5.84601C6.13092 6.33135 5.65773 6.47906 5.24626 6.22584C4.83479 5.97262 4.71135 5.48729 4.99938 4.95975C5.94576 3.20833 7.28304 1.87894 9.05237 1.01378C13.3728 -1.15967 18.4133 0.254125 21.1085 4.36891C21.2525 4.60103 21.3965 4.83314 21.4994 5.06526C21.7257 5.55059 21.5817 6.01482 21.1496 6.24694C20.7587 6.45795 20.3267 6.35245 20.0387 5.93042C19.7095 5.44508 19.4214 4.93865 19.0511 4.49552C17.5287 2.68079 15.5536 1.79453 13.0642 1.73123Z" fill="#603BAD"/>
<path d="M19.0923 8.33598C18.9071 8.5259 18.7219 8.86352 18.4545 8.99013C18.1047 9.15894 17.7344 8.99013 17.5081 8.63141C17.4052 8.4837 17.3641 8.29378 17.3024 8.10387C16.6234 6.39465 15.0599 5.27627 13.27 5.27627C11.4801 5.27627 9.91646 6.35245 9.23753 8.08277C9.19638 8.18827 9.15524 8.31488 9.11409 8.44149C8.90835 8.92683 8.47631 9.15894 8.02369 9.01123C7.57107 8.86352 7.32419 8.37819 7.50935 7.85065C8.27057 5.55059 9.81359 4.13679 12.1178 3.67256C15.0599 3.08172 17.8167 4.74874 18.866 7.61853C18.9483 7.78735 18.9894 7.99836 19.0923 8.33598Z" fill="#603BAD"/>
<path d="M32.2594 14.8352C31.8067 14.6031 31.2512 14.6664 30.8398 15.004L25.4907 19.372V16.5656C25.2643 13.5902 23.1247 11.5223 20.1209 11.5012C13.7843 11.5012 11.7681 11.4801 5.43142 11.5012C2.24252 11.5223 0 13.8224 0 17.1142C0 21.5033 0 25.8924 0 30.3026C0 33.721 2.22195 36 5.53429 36C11.7681 36 13.6814 36 19.9152 36C23.2481 36 25.4289 33.7632 25.4701 30.3237C25.4701 29.7329 25.4701 29.1209 25.4701 28.4668L30.9015 32.3283C31.1278 32.4972 31.3953 32.5816 31.6627 32.5816C31.8685 32.5816 32.0948 32.5394 32.2799 32.4338C32.712 32.2017 33 31.7375 33 31.21V16.0591C33 15.5527 32.712 15.0674 32.2594 14.8352ZM19.9975 33.0247C16.8498 33.0247 13.6814 33.0247 10.5337 33.0247C7.44763 33.0247 8.68204 33.0247 5.59601 33.0247C3.76496 33.0247 2.8803 32.1173 2.8803 30.2604C2.8803 25.9346 2.8803 21.6088 2.8803 17.283C2.8803 15.3417 3.74439 14.4554 5.65773 14.4554C11.8709 14.4554 13.7431 14.4554 19.9564 14.4554C21.7051 14.4554 22.6103 15.3628 22.6103 17.1986C22.6309 21.5877 22.6309 25.9979 22.6309 30.387C22.6309 32.1173 21.7257 33.0247 19.9975 33.0247ZM30.3254 28.5723L25.4907 25.1327V22.8749L30.3254 18.9289V28.5723Z" fill="#603BAD"/>
</svg>
