<svg width="63" height="64" viewBox="0 0 63 64" fill="none" xmlns="http://www.w3.org/2000/svg">
<path d="M6.96916 5.49444C6.96916 4.16953 6.90447 3.10313 7.00151 2.03674C7.03386 1.48738 7.2603 0.841086 7.61612 0.453306C7.9396 0.130157 8.61891 0.033212 9.07177 0.0978419C9.75108 0.227102 10.1716 0.776456 10.1716 1.48738C10.2039 2.71535 10.1716 3.94332 10.1716 5.42981C11.1744 5.42981 12.0801 5.42981 12.9535 5.42981C13.7946 5.42981 14.668 5.42981 15.7678 5.42981C15.7678 4.5573 15.7678 3.84638 15.7678 3.10313C15.7678 2.55378 15.7354 2.03674 15.8001 1.48738C15.9619 0.582566 16.5765 0.000897023 17.4175 0.000897023C18.2586 0.000897023 18.9055 0.582566 18.9702 1.5197C19.0349 2.26294 19.0026 3.0385 19.0026 3.78175C19.0026 4.29879 19.0349 4.81582 19.0673 5.39749C20.9434 5.39749 22.6255 5.39749 24.6311 5.39749C24.6311 4.07258 24.6311 2.8123 24.6311 1.55201C24.6311 0.744141 25.084 0.130157 25.8603 0.0655269C26.3779 0.033212 27.0572 0.259417 27.413 0.647196C27.7365 0.970346 27.8012 1.61664 27.8335 2.13368C27.8982 3.13545 27.8659 4.16953 27.8659 5.33286C29.7097 5.33286 31.4241 5.33286 33.4297 5.33286C33.4297 4.42804 33.4297 3.4586 33.4297 2.52146C33.4297 0.776456 33.9149 0.033212 34.9824 0.000897023C36.1146 -0.0314179 36.6321 0.808771 36.6645 2.61841C36.6645 3.52323 36.6645 4.42804 36.6645 5.46212C37.3114 5.46212 37.7967 5.46212 38.2495 5.46212C41.3873 5.55907 43.4899 7.5626 43.6193 10.7295C43.7163 13.0561 43.6516 15.3505 43.6516 17.6772C43.6516 18.8728 43.684 20.0362 43.6516 21.2318C43.6193 22.6537 43.0694 23.4292 42.0666 23.4616C41.0638 23.4939 40.4492 22.7183 40.4168 21.2964C40.3845 20.2947 40.4168 19.2606 40.4168 18.1619C27.9953 18.1619 15.7354 18.1619 3.34621 18.1619C3.31386 18.7436 3.24916 19.2606 3.24916 19.7776C3.24916 30.3446 3.24916 40.8793 3.24916 51.4463C3.24916 53.9345 3.79908 54.4839 6.28986 54.4839C11.045 54.4839 15.7678 54.4839 20.5229 54.4839C21.0081 54.4839 21.4933 54.4839 21.9786 54.5485C22.7873 54.6778 23.2078 55.2595 23.2725 56.0027C23.3048 56.7783 22.949 57.3599 22.1403 57.5861C21.7198 57.6831 21.2993 57.7154 20.8464 57.7154C15.8325 57.7154 10.8186 57.7477 5.80464 57.7154C2.95803 57.6831 1.01716 56.4228 0.305507 54.0961C0.0467247 53.2882 0.0143768 52.4157 0.0143768 51.5432C-0.017971 46.696 0.0143768 41.8488 0.0143768 37.0015C0.0143768 28.6319 0.0143768 20.2947 0.0143768 11.9574C0.0143768 11.3758 0.0143768 10.7618 0.0790725 10.1801C0.305507 7.69185 2.34342 5.68833 4.83421 5.49444C5.48116 5.42981 6.09577 5.49444 6.96916 5.49444ZM3.28151 14.7688C15.6707 14.7688 27.9306 14.7688 40.3198 14.7688C40.3198 13.3147 40.3845 11.8605 40.2874 10.4386C40.2228 9.40455 39.4788 8.82288 38.476 8.72593C38.1525 8.69362 37.829 8.69362 37.5055 8.69362C27.0572 8.69362 16.6088 8.69362 6.16047 8.69362C5.83699 8.69362 5.51351 8.69362 5.19003 8.72593C4.09021 8.85519 3.34621 9.46918 3.28151 10.5679C3.21681 11.9251 3.28151 13.3147 3.28151 14.7688Z" fill="#FFFCFC" fill-opacity="0.5"/>
<path d="M26.3455 61.7224C26.669 57.6831 26.9278 53.9346 27.2836 50.186C27.3483 49.572 27.6071 48.9257 27.9629 48.441C34.7883 39.0374 41.6461 29.6337 48.5361 20.2624C50.6064 17.451 53.7765 16.9339 56.6231 18.9375C57.9494 19.8746 59.2433 20.8117 60.5372 21.7812C63.2868 23.914 63.8043 27.0485 61.7341 29.8922C54.9087 39.2959 48.0509 48.6995 41.1932 58.1032C40.9021 58.5233 40.4815 58.9757 40.0287 59.1696C36.244 60.753 32.4916 62.3041 28.6746 63.8229C27.316 64.3723 26.3779 63.5967 26.3455 62.1425C26.3132 61.884 26.3455 61.6578 26.3455 61.7224ZM35.1765 49.7013C39.5111 43.7877 43.7163 37.971 48.0509 32.0896C47.1128 31.411 46.2395 30.8294 45.3014 30.1507C40.8374 36.2906 36.4381 42.3012 31.9741 48.441C33.0739 48.8611 34.0443 49.2489 35.1765 49.7013ZM50.6388 33.9962C46.3365 39.9099 42.0666 45.7589 37.7967 51.6079C38.573 52.5773 39.2523 53.3852 39.9963 54.29C44.4603 48.1502 48.8596 42.1073 53.3236 35.9674C52.3855 35.2888 51.5768 34.6748 50.6388 33.9962ZM30.3567 51.6079C30.1626 54.4193 29.9685 57.0368 29.7744 59.8805C32.4916 58.7818 34.9501 57.78 37.5055 56.7136C35.8881 53.773 33.7208 52.1249 30.3567 51.6079ZM50.8652 22.6537C53.4854 24.5603 56.1055 26.4668 58.7257 28.3734C60.1167 26.5638 60.0196 25.4328 58.4022 24.2048C57.2054 23.3 56.0085 22.4275 54.7469 21.555C53.1619 20.4886 52.0297 20.7794 50.8652 22.6537ZM56.8819 31.0233C54.1323 29.0197 51.5121 27.1131 48.8273 25.1742C48.245 26.0144 47.7598 26.693 47.2099 27.4686C49.9594 29.4721 52.5796 31.3787 55.2322 33.3176C55.8144 32.5421 56.2673 31.8958 56.8819 31.0233Z" fill="#FFFCFC" fill-opacity="0.5"/>
<path d="M25.1487 29.2459C22.8843 29.2459 20.62 29.2459 18.3556 29.2459C17.9351 29.2459 17.4822 29.2459 17.0617 29.1813C16.2206 29.052 15.7031 28.535 15.6707 27.6625C15.606 26.8223 16.1883 26.2083 17.1264 26.0467C17.4499 25.9821 17.7733 25.9821 18.0968 25.9821C22.7873 25.9821 27.4777 25.9821 32.1358 25.9821C32.4593 25.9821 32.7827 25.9821 33.1062 26.0144C34.0443 26.176 34.6266 26.79 34.5942 27.6302C34.5619 28.4381 33.9796 29.052 33.0092 29.1813C32.5887 29.2459 32.1358 29.2136 31.7153 29.2136C29.548 29.2459 27.3483 29.2459 25.1487 29.2459Z" fill="#FFFCFC" fill-opacity="0.5"/>
<path d="M22.5932 34.4809C24.0812 34.4809 25.6015 34.4809 27.0895 34.4809C27.4777 34.4809 27.8335 34.4809 28.2217 34.5456C29.0304 34.7072 29.5156 35.2888 29.4509 35.9998C29.3862 36.5491 28.901 37.1308 28.4481 37.4862C28.1247 37.7448 27.5424 37.7124 27.0572 37.7124C24.0488 37.7448 21.0405 37.7124 18.0321 37.7124C17.8704 37.7124 17.7087 37.7124 17.5469 37.7124C16.3177 37.6155 15.606 36.9692 15.6707 35.9674C15.7354 35.0303 16.3824 34.5133 17.6116 34.4809C19.2613 34.4486 20.9111 34.4809 22.5932 34.4809Z" fill="#FFFCFC" fill-opacity="0.5"/>
<path d="M20.0053 42.9152C20.814 42.9152 21.6227 42.8828 22.3991 42.9152C23.3695 42.9798 23.9518 43.5291 24.0488 44.337C24.1135 45.2095 23.4989 46.0174 22.5285 46.0497C20.7817 46.1466 19.0026 46.1466 17.2234 46.0497C16.2206 46.0174 15.606 45.2095 15.6707 44.337C15.7354 43.4645 16.3824 42.9152 17.4499 42.8505C18.2909 42.8828 19.132 42.9152 20.0053 42.9152Z" fill="#FFFCFC" fill-opacity="0.5"/>
<path d="M8.19838 44.5632C8.16603 43.4645 8.97473 42.6243 10.0746 42.6243C11.142 42.6243 12.0154 43.4968 12.0154 44.5309C12.0154 45.468 11.142 46.3728 10.1716 46.4375C9.16882 46.5021 8.23073 45.6296 8.19838 44.5632Z" fill="#FFFCFC" fill-opacity="0.5"/>
<path d="M10.1069 37.971C9.10412 38.0033 8.23073 37.1954 8.16604 36.1936C8.10134 35.0949 8.91004 34.2224 10.0422 34.2224C11.0773 34.1901 11.9184 34.9657 11.9831 35.9674C12.0801 36.9692 11.1744 37.9386 10.1069 37.971Z" fill="#FFFCFC" fill-opacity="0.5"/>
<path d="M10.0422 29.5044C9.00708 29.5044 8.19838 28.6966 8.16604 27.6625C8.13369 26.5638 8.97473 25.7236 10.1069 25.7559C11.1097 25.7559 11.9831 26.5961 11.9831 27.5979C12.0478 28.6319 11.142 29.5044 10.0422 29.5044Z" fill="#FFFCFC" fill-opacity="0.5"/>
</svg>
