<svg width="33" height="33" viewBox="0 0 33 33" fill="none" xmlns="http://www.w3.org/2000/svg">
<path d="M15.724 30.9637C25.9914 30.9289 32.5807 20.161 27.9089 11.0777C27.7346 10.7304 27.1419 10.3135 27.8566 9.93144C28.3796 9.63619 29.4603 9.91407 29.687 10.3656C30.6806 12.3282 31.2384 14.4123 31.3256 16.618C31.6742 25.8402 24.3702 33.2041 15.1139 32.9957C7.60078 32.822 1.02896 26.8823 0.122503 19.4142C-1.06286 9.63619 6.50257 1.42129 16.3864 1.75128C18.5654 1.82075 20.6224 2.37651 22.5748 3.33174C23.1326 3.59225 23.4638 4.87746 23.0628 5.32902C22.9408 5.46796 22.4876 5.46796 22.261 5.36375C20.6398 4.5301 18.9489 3.99171 17.136 3.78329C8.76871 2.77597 1.27301 9.98355 2.00515 18.3721C2.65012 25.6144 8.50723 30.9984 15.724 30.9637Z" fill="#B7B7B7"/>
<path d="M25.7648 12.0329C28.0135 15.5412 27.9786 22.1062 23.0454 26.1702C18.4085 29.9911 11.7321 29.6437 7.53105 25.4234C3.32997 21.1857 3.06849 14.4991 6.92093 9.96618C10.7908 5.39849 17.136 4.91219 21.0582 7.34366C20.6747 7.72575 20.326 8.17731 19.8902 8.47256C19.6811 8.6115 19.2453 8.5594 18.9664 8.45519C13.9111 6.66632 8.36778 9.23674 6.67689 14.2907C5.45666 17.9206 6.22366 21.2552 8.90817 23.9819C11.6275 26.726 15.0093 27.5596 18.67 26.3265C22.2958 25.1108 24.44 22.5056 25.0849 18.7021C25.3464 17.1738 25.207 15.6801 24.6491 14.2734C24.3528 13.5439 24.4748 13.0924 25.0501 12.6582C25.3116 12.4845 25.5207 12.2587 25.7648 12.0329Z" fill="#B7B7B7"/>
<path d="M29.6695 3.41857C30.4888 3.41857 31.221 3.3491 31.9357 3.43594C32.3192 3.48804 32.8421 3.71382 32.9642 3.99171C33.0862 4.26959 32.877 4.82535 32.6329 5.10324C32.0403 5.81531 31.3081 6.40581 30.698 7.10052C30.2099 7.63891 29.6695 7.93416 28.9374 7.81259C27.5428 7.56944 26.5667 8.12521 25.6253 9.1499C23.5335 11.3903 21.3022 13.5265 19.1232 15.6975C18.792 16.0275 18.6352 16.288 18.7397 16.809C19.0361 18.1811 18.3214 19.5184 17.1011 20.1436C15.8983 20.7515 14.4341 20.5431 13.4753 19.6052C12.5166 18.6674 12.2551 17.2259 12.8478 16.0101C13.4405 14.777 14.7827 14.0302 16.1598 14.2907C16.7525 14.4123 17.0663 14.2213 17.4324 13.8565C19.8205 11.4598 22.2261 9.04569 24.6491 6.68369C25.1024 6.23213 25.3464 5.78057 25.2418 5.15534C24.9978 3.66172 25.5207 2.53282 26.7061 1.62971C27.0722 1.35182 27.3685 0.987103 27.6997 0.657117C28.0832 0.275029 28.4493 -0.193898 29.1117 0.0839848C29.7567 0.361867 29.6695 0.952367 29.6695 1.50813C29.6695 2.116 29.6695 2.7065 29.6695 3.41857Z" fill="#B7B7B7"/>
<path d="M17.7984 10.5046C17.0837 11.4598 16.2993 12.0677 14.9745 12.1719C12.2899 12.3803 10.355 14.6728 10.3201 17.3474C10.2853 19.9178 12.2725 22.2277 14.835 22.6098C17.5544 23.0093 20.0471 21.4115 20.7793 18.8063C20.849 18.5632 20.9362 18.2853 20.9187 18.0421C20.7618 16.7396 21.5811 15.9928 22.4876 15.298C23.5858 17.3995 22.6793 21.1509 20.2215 23.0961C17.3975 25.3365 13.3707 25.2323 10.7036 22.8356C8.054 20.4389 7.51362 16.4964 9.43112 13.5092C11.2266 10.6956 15.0616 9.30621 17.7984 10.5046Z" fill="#B7B7B7"/>
</svg>
