<svg width="51" height="47" viewBox="0 0 51 47" fill="none" xmlns="http://www.w3.org/2000/svg">
<rect width="51" height="47" rx="10" fill="#E6DDFF"/>
<path d="M18 23C17.4477 23 17 23.4477 17 24C17 24.5523 17.4477 25 18 25V23ZM33.2071 24.7071C33.5976 24.3166 33.5976 23.6834 33.2071 23.2929L26.8431 16.9289C26.4526 16.5384 25.8195 16.5384 25.4289 16.9289C25.0384 17.3195 25.0384 17.9526 25.4289 18.3431L31.0858 24L25.4289 29.6569C25.0384 30.0474 25.0384 30.6805 25.4289 31.0711C25.8195 31.4616 26.4526 31.4616 26.8431 31.0711L33.2071 24.7071ZM18 25H32.5V23H18V25Z" fill="#5E3CBE"/>
</svg>
