<svg width="120" height="39" viewBox="0 0 120 39" fill="none" xmlns="http://www.w3.org/2000/svg">
<path d="M59.8775 39C49.0615 39 40.3414 30.2503 40.3414 19.4814C40.3414 8.71246 49.0989 -0.0372726 59.9149 0.000119402C70.7683 0.0375114 79.4884 8.74985 79.451 19.5935C79.451 30.3251 70.6934 39 59.8775 39ZM59.9523 2.46799C50.5211 2.46799 42.8489 10.096 42.8489 19.5188C42.8489 28.9415 50.5211 36.5695 59.9523 36.5321C69.3461 36.5321 76.9809 28.8668 76.9809 19.4814C76.9809 10.1334 69.3087 2.46799 59.9523 2.46799Z" fill="white"/>
<path d="M14.9669 10.2829C14.9669 10.5821 14.9669 10.8438 14.9295 11.1429C14.8172 12.3395 13.7693 12.9752 12.684 12.4143C11.4864 11.7786 10.2887 11.0682 9.09113 10.3577C8.08064 9.75944 8.04321 8.41332 9.0537 7.77766C10.2513 7.02982 11.4489 6.35676 12.684 5.68371C13.7319 5.12283 14.8172 5.75849 14.8921 6.95504C14.9295 7.29156 14.8921 7.62809 14.8921 8.0394C15.154 8.11419 15.3786 8.15158 15.6032 8.18897C22.0778 9.64726 26.3068 15.5178 25.6332 22.1362C25.0718 27.7076 20.6556 32.419 15.1166 33.3538C8.15549 34.5503 1.60604 30.1007 0.258721 23.1458C-0.564639 18.8831 0.59555 15.1439 3.47731 11.9282C3.58959 11.7786 3.73929 11.6664 3.88899 11.5543C4.30067 11.2551 4.9369 11.2925 5.27373 11.6664C5.64798 12.0404 5.68541 12.6012 5.38601 13.0499C5.27373 13.1995 5.16145 13.3117 5.04918 13.4239C2.16742 16.7144 1.34406 20.4536 2.91593 24.5293C4.4878 28.605 7.59411 30.9233 11.9355 31.3346C17.7738 31.9329 22.9011 27.6328 23.5373 21.8371C24.0987 16.6396 20.693 11.7038 15.6032 10.3951C15.3786 10.3203 15.1915 10.3203 14.9669 10.2829Z" fill="white"/>
<path d="M104.863 8.0394C104.863 7.70288 104.863 7.36635 104.863 7.06721C104.938 5.75849 106.023 5.08543 107.183 5.7211C108.381 6.35676 109.541 7.06721 110.701 7.74027C111.712 8.33854 111.712 9.68465 110.739 10.3203C109.578 11.0308 108.381 11.7412 107.146 12.3769C106.023 12.9752 104.938 12.3021 104.863 11.0308C104.863 10.8064 104.863 10.5821 104.863 10.2829C104.676 10.3203 104.526 10.3203 104.414 10.3577C99.2865 11.5916 95.8433 16.4152 96.2924 21.7249C96.7415 26.8102 100.971 30.9607 106.098 31.3346C112.535 31.8207 117.924 26.6606 117.625 20.1918C117.513 17.5744 116.54 15.2935 114.743 13.3865C114.631 13.2743 114.481 13.1621 114.406 13.0125C114.107 12.6012 114.144 12.0404 114.481 11.6664C114.818 11.2925 115.379 11.2177 115.829 11.4795C115.978 11.5916 116.128 11.7038 116.24 11.8534C121.891 17.7239 120.619 27.4459 113.62 31.6338C105.611 36.4573 95.3942 31.559 94.1592 22.3232C93.3358 15.8917 97.6772 9.68465 104.039 8.22637C104.264 8.15158 104.526 8.11419 104.863 8.0394Z" fill="white"/>
<path d="M19.0463 20.7527C19.0463 21.9118 18.7469 22.9214 18.1107 23.8188C16.913 25.5389 13.8442 25.5763 12.684 23.5945C11.7109 21.9492 11.8606 19.4066 13.0208 17.9109C14.181 16.4152 17.2125 16.1909 18.4101 18.2848C18.8966 19.0701 19.0463 19.9301 19.0463 20.7527ZM14.181 20.7901C14.3307 21.351 14.4055 21.8745 14.5927 22.3605C14.7424 22.8093 15.1166 23.1458 15.6406 23.1084C16.1645 23.1084 16.4639 22.8093 16.6511 22.3605C16.7633 22.024 16.8756 21.6127 16.913 21.2388C16.9505 20.5283 16.8756 19.8179 16.5014 19.2196C16.0148 18.4344 15.0418 18.4344 14.6301 19.257C14.3681 19.7805 14.2933 20.304 14.181 20.7901Z" fill="white"/>
<path d="M113.096 20.9397C113.096 21.9492 112.909 22.8466 112.423 23.6693C111.712 24.8658 110.626 25.3519 109.279 25.2771C107.969 25.2023 107.034 24.5293 106.547 23.3327C105.911 21.7997 105.948 20.2292 106.734 18.7335C107.557 17.1257 109.429 16.49 111.075 17.2005C111.861 17.537 112.348 18.1353 112.685 18.8831C112.984 19.5188 113.096 20.2292 113.096 20.9397ZM110.963 21.2388C110.888 20.6405 110.851 20.0422 110.552 19.5188C110.327 19.1074 110.028 18.8457 109.541 18.8831C109.054 18.8831 108.755 19.1822 108.568 19.5935C108.119 20.6031 108.194 21.6127 108.605 22.6223C108.793 23.071 109.129 23.3701 109.616 23.3701C110.14 23.3701 110.477 23.0336 110.664 22.5849C110.813 22.0988 110.888 21.6501 110.963 21.2388Z" fill="white"/>
<path d="M10.9624 24.9032C10.2513 24.9032 9.54023 24.9032 8.82915 24.9032C8.82915 23.1832 8.82915 21.5379 8.82915 19.7431C8.38004 19.9675 8.00579 20.117 7.59411 20.3414C7.33213 19.8553 7.07015 19.4066 6.80817 18.9205C7.74381 18.21 8.67945 17.537 9.61508 16.9013C10.0268 16.6396 10.5133 16.8265 10.9998 16.7891C10.9624 19.4814 10.9624 22.1362 10.9624 24.9032Z" fill="white"/>
<path d="M104.975 25.0528C104.227 25.0528 103.553 25.0528 102.767 25.0528C102.842 23.3327 102.917 21.6501 102.842 19.8927C102.393 20.117 102.019 20.2666 101.569 20.4909C101.307 20.0049 101.083 19.5935 100.821 19.1074C100.971 18.9953 101.083 18.8457 101.195 18.7709C101.794 18.3222 102.468 17.9109 103.029 17.4248C103.59 16.9013 104.227 16.8639 104.975 17.0135C104.975 19.6309 104.975 22.3232 104.975 25.0528Z" fill="white"/>
<path d="M55.5361 19.444C55.5361 21.9118 55.5361 24.3797 55.5361 26.8476C55.5361 27.1093 55.5361 27.3711 55.4987 27.6328C55.3864 28.2685 54.8999 28.6424 54.2262 28.605C53.59 28.5676 53.1409 28.1563 53.066 27.5206C53.0286 27.3337 53.066 27.1467 53.066 26.9224C53.066 21.9118 53.066 16.9013 53.066 11.9282C53.066 11.7038 53.066 11.4795 53.1035 11.2551C53.1783 10.6942 53.6274 10.2829 54.1888 10.2455C54.7876 10.2081 55.3116 10.5073 55.4613 11.1056C55.5361 11.3673 55.5361 11.6664 55.5361 11.9656C55.5361 14.4708 55.5361 16.9761 55.5361 19.444Z" fill="white"/>
<path d="M66.7637 19.5188C66.7637 22.024 66.7637 24.5293 66.7637 27.0719C66.7637 27.2963 66.7637 27.5206 66.7263 27.745C66.6515 28.3059 66.2024 28.7172 65.641 28.7546C65.0796 28.792 64.5556 28.4928 64.3685 27.9694C64.2937 27.745 64.2562 27.4833 64.2562 27.2589C64.2562 22.1736 64.2562 17.0509 64.2562 11.9656C64.2562 11.7412 64.2562 11.4795 64.3311 11.2551C64.4808 10.6942 64.9673 10.3951 65.5661 10.3951C66.1275 10.4325 66.614 10.8064 66.6889 11.3673C66.7263 11.5916 66.7263 11.8534 66.7263 12.1151C66.7637 14.5456 66.7637 17.0509 66.7637 19.5188Z" fill="white"/>
</svg>
