<svg width="31" height="31" viewBox="0 0 31 31" fill="none" xmlns="http://www.w3.org/2000/svg">
<g clip-path="url(#clip0_10_5711)">
<path opacity="0.31" d="M15.5167 31.0334C24.0864 31.0334 31.0334 24.0864 31.0334 15.5167C31.0334 6.94707 24.0864 0 15.5167 0C6.94707 0 0 6.94707 0 15.5167C0 24.0864 6.94707 31.0334 15.5167 31.0334Z" fill="white"/>
<path d="M17.5567 10.2999C17.7239 10.2999 17.8911 10.3668 18.0249 10.5005C18.2924 10.7681 18.2924 11.1694 18.0249 11.4369L14.0788 15.3495L18.2924 19.5631C18.5599 19.8306 18.5599 20.2319 18.2924 20.4995C18.0249 20.767 17.6236 20.767 17.356 20.4995L12.6743 15.8177C12.4068 15.5502 12.4068 15.1489 12.6743 14.8813L17.0885 10.4671C17.2223 10.3668 17.3895 10.2999 17.5567 10.2999Z" fill="white"/>
</g>
<defs>
<clipPath id="clip0_10_5711">
<rect width="31" height="31" fill="white"/>
</clipPath>
</defs>
</svg>
