<svg width="92" height="13" viewBox="0 0 92 13" fill="none" xmlns="http://www.w3.org/2000/svg">
<path d="M83.2412 0H80.1594C79.1862 0 78.4076 0.742857 78.4076 1.67143V4.6119C78.4076 4.85952 78.6347 5.07619 78.8942 5.07619C79.1537 5.07619 79.3808 4.85952 79.3808 4.6119V1.67143C79.3808 1.2381 79.7377 0.897619 80.1918 0.897619H83.2736C83.5331 0.897619 83.7602 0.680952 83.7602 0.433333C83.7602 0.185714 83.5007 0 83.2412 0Z" fill="white"/>
<path d="M90.2158 0H87.134C86.8745 0 86.6474 0.216667 86.6474 0.464286C86.6474 0.711905 86.8745 0.928571 87.134 0.928571H90.2158C90.67 0.928571 91.0268 1.26905 91.0268 1.70238V4.64286C91.0268 4.89048 91.2539 5.10714 91.5134 5.10714C91.7729 5.10714 92 4.89048 92 4.64286V1.67143C91.9676 0.742857 91.189 0 90.2158 0Z" fill="white"/>
<path d="M91.5134 7.89286C91.2539 7.89286 91.0268 8.10952 91.0268 8.35714V11.2976C91.0268 11.731 90.67 12.0714 90.2158 12.0714H87.134C86.8745 12.0714 86.6474 12.2881 86.6474 12.5357C86.6474 12.7833 86.8745 13 87.134 13H90.2158C91.189 13 91.9676 12.2571 91.9676 11.3286V8.35714C91.9676 8.07857 91.7729 7.89286 91.5134 7.89286Z" fill="white"/>
<path d="M83.2412 12.0405H80.1594C79.7052 12.0405 79.3484 11.7 79.3484 11.2667V8.35714C79.3484 8.10952 79.1213 7.89286 78.8618 7.89286C78.6023 7.89286 78.3752 8.10952 78.3752 8.35714V11.2976C78.3752 12.2262 79.1537 12.969 80.1269 12.969H83.2087C83.4683 12.969 83.6953 12.7524 83.6953 12.5048C83.6953 12.2571 83.5007 12.0405 83.2412 12.0405Z" fill="white"/>
<path d="M51.5148 1.95V11.5762H50.1848V7.21191H45.0917V11.5762H43.7616V1.95H45.0917V6.19048H50.2172V1.95H51.5148Z" fill="white"/>
<path d="M60.0465 2.5381C60.8575 2.94048 61.4739 3.49762 61.8956 4.20952C62.3173 4.92143 62.5444 5.7881 62.5444 6.77857C62.5444 7.76905 62.3173 8.60476 61.8956 9.34762C61.4739 10.0595 60.8575 10.6167 60.0465 10.9881C59.2355 11.3595 58.2948 11.5452 57.1918 11.5452H54.0451V1.95H57.1918C58.2948 1.95 59.2355 2.16667 60.0465 2.5381ZM60.1763 9.56429C60.8575 8.91429 61.2144 7.98571 61.2144 6.80952C61.2144 5.60238 60.8575 4.67381 60.1763 4.02381C59.4951 3.34286 58.4894 3.00238 57.1918 3.00238H55.3752V10.5238H57.1918C58.4894 10.5238 59.4951 10.2143 60.1763 9.56429Z" fill="white"/>
<path d="M10.5755 3.09524H12.3921V9.75H11.5162V3.86905H10.5755V3.09524Z" fill="white"/>
<path d="M18.1989 9.75L16.9337 7.86191L15.7334 9.75H14.8251L16.5444 7.24286L14.8251 4.70476H15.8307L17.0959 6.56191L18.2962 4.70476H19.2045L17.5176 7.21191L19.237 9.75H18.1989Z" fill="white"/>
<path d="M21.8646 12.7833H6.68265C3.01693 12.7833 0 9.93571 0 6.40714C0 2.90952 3.01693 0.0309524 6.68265 0.0309524H21.8646C25.5628 0.0309524 28.5472 2.90952 28.5472 6.40714C28.5472 9.93571 25.5628 12.7833 21.8646 12.7833ZM6.68265 0.804762C3.43865 0.804762 0.811001 3.31191 0.811001 6.40714C0.811001 9.50238 3.43865 12.0095 6.68265 12.0095H21.8646C25.1086 12.0095 27.7362 9.50238 27.7362 6.40714C27.7362 3.31191 25.1086 0.804762 21.8646 0.804762H6.68265Z" fill="white"/>
</svg>
